SplineFontDB: 3.0
FontName: forsythe-book
FullName: Forsythe
FamilyName: Forsythe
Weight: Book
Copyright: Copyright (c) 2012, Tristen Brown <tristen.brown@gmail.com>, with Reserved Font Name: 'Forsythe'.\n\nThis Font Software is licensed under the SIL Open Font License, Version 1.0.\nThe license available with a FAQ at:\nhttp://scripts.sil.org/OFL\n\nSeptember 2012
UComments: "2012-9-15: Created." 
Version: 001.000
ItalicAngle: 0
UnderlinePosition: -100
UnderlineWidth: 50
Ascent: 800
Descent: 200
LayerCount: 2
Layer: 0 0 "Back"  1
Layer: 1 0 "Fore"  0
XUID: [1021 562 2126814528 16413965]
FSType: 0
OS2Version: 0
OS2_WeightWidthSlopeOnly: 0
OS2_UseTypoMetrics: 1
CreationTime: 1347737418
ModificationTime: 1349661658
OS2TypoAscent: 0
OS2TypoAOffset: 1
OS2TypoDescent: 0
OS2TypoDOffset: 1
OS2TypoLinegap: 90
OS2WinAscent: 0
OS2WinAOffset: 1
OS2WinDescent: 0
OS2WinDOffset: 1
HheadAscent: 0
HheadAOffset: 1
HheadDescent: 0
HheadDOffset: 1
Lookup: 258 0 0 "Latin Kerning"  {"Latin Kerning-1" [150,15,2] } ['kern' ('latn' <'dflt' > ) ]
MarkAttachClasses: 1
DEI: 91125
LangName: 1033 
Encoding: ISO8859-1
UnicodeInterp: none
NameList: Adobe Glyph List
DisplaySize: -24
AntiAlias: 1
FitToEm: 1
WinInfo: 0 38 11
BeginPrivate: 0
EndPrivate
BeginChars: 256 95

StartChar: exclam
Encoding: 33 33 0
Width: 114
VWidth: -200
Flags: W
HStem: -200 80<25 89> 580 20G<25 89> 580 20G<25 89>
VStem: 25 64<-200 -120 -72 600>
LayerCount: 2
Fore
SplineSet
25 600 m 1xd0
 89 600 l 1
 89 -72 l 1
 25 -72 l 1
 25 600 l 1xd0
25 -120 m 1
 89 -120 l 1
 89 -200 l 1
 25 -200 l 1
 25 -120 l 1
EndSplineSet
Validated: 1
EndChar

StartChar: quotedbl
Encoding: 34 34 1
Width: 226
VWidth: -200
Flags: W
HStem: 456 144<25 89 137 201>
VStem: 25 64<456 600> 137 64<456 600>
LayerCount: 2
Fore
SplineSet
25 600 m 1
 89 600 l 1
 89 456 l 1
 25 456 l 1
 25 600 l 1
137 600 m 1
 201 600 l 1
 201 456 l 1
 137 456 l 1
 137 600 l 1
EndSplineSet
Validated: 1
EndChar

StartChar: numbersign
Encoding: 35 35 2
Width: 418
VWidth: -200
Flags: W
HStem: -200 21G<89 153 265 329> -200 21G<89 153 265 329> 72 64<25 89 153 265 329 393> 264 64<25 89 153 265 329 393> 580 20G<89 153 265 329> 580 20G<89 153 265 329>
VStem: 89 64<-200 72 136 264 328 600> 265 64<-200 72 136 264 328 600>
LayerCount: 2
Fore
SplineSet
89 600 m 1xbb
 153 600 l 1
 153 328 l 1
 265 328 l 1
 265 600 l 1
 329 600 l 1
 329 328 l 1
 393 328 l 1
 393 264 l 1
 329 264 l 1
 329 136 l 1
 393 136 l 1
 393 72 l 1
 329 72 l 1
 329 -200 l 1
 265 -200 l 1
 265 72 l 1
 153 72 l 1
 153 -200 l 1
 89 -200 l 1
 89 72 l 1
 25 72 l 1
 25 136 l 1
 89 136 l 1
 89 264 l 1
 25 264 l 1
 25 328 l 1
 89 328 l 1
 89 600 l 1xbb
153 264 m 1
 153 136 l 1
 265 136 l 1
 265 264 l 1
 153 264 l 1
EndSplineSet
Validated: 1
EndChar

StartChar: I
Encoding: 73 73 3
Width: 114
VWidth: -200
Flags: W
HStem: -200 21G<25 89> -200 21G<25 89> 580 20G<25 89> 580 20G<25 89>
VStem: 25 64<-200 600>
LayerCount: 2
Fore
SplineSet
25 600 m 5xa8
 89 600 l 5
 89 -200 l 5
 25 -200 l 5
 25 600 l 5xa8
EndSplineSet
Validated: 1
EndChar

StartChar: dollar
Encoding: 36 36 4
Width: 274
VWidth: -200
Flags: W
HStem: -200 21G<105 169> -200 21G<105 169> -104 64<89.0663 105 169 184.938> 152 64<89.0641 184.936> 440 64<89.0625 105 169 184.938> 580 20G<105 169> 580 20G<105 169>
VStem: 25 64<-39.911 56 216.062 439.938> 105 64<-200 -104 504 600> 185 63.5<-39.9375 151.938 344 439.938>
LayerCount: 2
Fore
SplineSet
105 600 m 1xbdc0
 169 600 l 1
 169 504 l 1
 185 504 l 2
 216.96484375 504 248.5 472 248.5 440 c 2
 249 344 l 1
 185 344 l 1
 185 408 l 2
 185 440 185 440 153 440 c 2
 121 440 l 2
 89 440 89 440 89 408 c 2
 89 296 l 1
 89 248 l 2
 89 216 89.0380859375 216 121 216 c 2
 185 216 l 2
 216.96484375 216 248.5 184 248.5 152 c 2
 248.5 -40 l 2
 248.498046875 -72 216.96484375 -104 185 -104 c 2
 169 -104 l 1
 169 -200 l 1
 105 -200 l 1
 105 -104 l 1
 89 -104 l 2
 57.03515625 -104 25 -72 25 -40 c 2
 25.5 56 l 1
 89 56 l 1
 89 -8 l 2
 89 -40 89.009765625 -40 122.71875 -40 c 2
 153 -40 l 2
 185 -40 185 -40 185 -8 c 2
 185 24 l 1
 185 72 l 1
 185 120 l 2
 185 152 184.96484375 152 153 152 c 2
 89 152 l 2
 57.03515625 152 25 184 25 216 c 2
 25 440 l 2
 25 472 57.03515625 504 89 504 c 2
 105 504 l 1
 105 600 l 1xbdc0
EndSplineSet
Validated: 1
EndChar

StartChar: percent
Encoding: 37 37 5
Width: 274
VWidth: -200
Flags: W
HStem: -200 96<185 249> 504 96<25 89>
VStem: 25 64<504 600> 185 64<-200 -104>
LayerCount: 2
Fore
SplineSet
25 600 m 5
 89 600 l 5
 89 504 l 5
 25 504 l 5
 25 600 l 5
185 600 m 5
 249 600 l 5
 89 -200 l 5
 25 -200 l 5
 185 600 l 5
185 -104 m 5
 249 -104 l 5
 249 -200 l 5
 185 -200 l 5
 185 -104 l 5
EndSplineSet
Validated: 1
EndChar

StartChar: ampersand
Encoding: 38 38 6
Width: 338
VWidth: -200
Flags: W
HStem: -200 64<89.089 200.938> 152 64<89 201 265 313> 536 64<89.0605 233>
VStem: 25 64<-135.933 152 216 535.958> 201 64<-135.938 152 216 296>
LayerCount: 2
Fore
SplineSet
89 600 m 6
 233 600 l 5
 233 536 l 5
 120 536 l 6
 89 536 89 536 89 504 c 6
 89 216 l 5
 201 216 l 5
 201 296 l 5
 265 296 l 5
 265 216 l 5
 313 216 l 5
 313 152 l 5
 265 152 l 5
 265 -136 l 6
 265 -168 233 -200 201 -200 c 6
 89 -200 l 6
 57 -200 25 -168 25 -136 c 6
 25 152 l 5
 89 184 l 5
 25 216 l 5
 25 536 l 6
 25 568 57 600 89 600 c 6
89 152 m 5
 89 -102.0625 l 6
 89 -135.98828125 89 -136 121 -136 c 6
 169 -136 l 6
 201 -136 201 -136 201 -104 c 6
 201 152 l 5
 89 152 l 5
EndSplineSet
Validated: 1
EndChar

StartChar: quotesingle
Encoding: 39 39 7
Width: 114
VWidth: -200
Flags: W
HStem: 456 144<25 89>
VStem: 25 64<456 600>
LayerCount: 2
Fore
SplineSet
25 600 m 5
 89 600 l 5
 89 456 l 5
 25 456 l 5
 25 600 l 5
EndSplineSet
Validated: 1
EndChar

StartChar: parenleft
Encoding: 40 40 8
Width: 210
VWidth: -200
Flags: W
HStem: -200 64<89.0632 185> 536 64<89.0706 185>
VStem: 25 160<-181.113 -136 536 581.455> 25 64<-135.938 535.954>
LayerCount: 2
Fore
SplineSet
89 600 m 6xd0
 185 600 l 5
 185 536 l 5xe0
 120.5625 536 l 6
 120.044921875 536 l 0
 89.2421875 536 89 535.828125 89 504.712890625 c 0
 89 504 l 6
 89 -104 l 6xd0
 89 -136 89.013671875 -136 121.09375 -136 c 6
 185 -136 l 5
 185 -200 l 5xe0
 89 -200 l 6xd0
 57 -200 25 -168 25 -136 c 6
 25 539 l 6
 25 539.002929688 l 0xe0
 25 568.001953125 57.0009765625 600 89 600 c 6xd0
EndSplineSet
Validated: 1
EndChar

StartChar: parenright
Encoding: 41 41 9
Width: 210
VWidth: -200
Flags: W
HStem: -200 64<25 120.927> 536 64<25 120.902>
VStem: 25 160<-181.113 -136 536 581.455> 121 64<-135.936 535.935>
LayerCount: 2
Fore
SplineSet
25 600 m 5xe0
 121 600 l 6xd0
 152.999023438 600 185 568.001953125 185 539.002929688 c 0
 185 539 l 6
 185 -136 l 6xe0
 185 -168 153 -200 121 -200 c 6xd0
 25 -200 l 5
 25 -136 l 5xe0
 89 -136 l 6
 120.75390625 -136 121 -135.999023438 121 -103.267578125 c 0
 121 -102.5 l 6
 121 502.4375 l 6
 121 502.984375 l 0xd0
 121 535.998046875 120.825195312 536 89.0107421875 536 c 0
 89 536 l 6
 25 536 l 5
 25 600 l 5xe0
EndSplineSet
Validated: 1
EndChar

StartChar: asterisk
Encoding: 42 42 10
Width: 242
VWidth: -200
Flags: W
HStem: 408 192<105 137>
VStem: 105 33<408 472 536 600>
LayerCount: 2
Fore
SplineSet
105 600 m 5
 138 600 l 5
 137 536 l 5
 201 568 l 5
 217 536 l 5
 153 504 l 5
 217 472 l 5
 201 440 l 5
 137 472 l 5
 138 408 l 5
 105 408 l 5
 105 472 l 5
 41 440 l 5
 25 472 l 5
 89 504 l 5
 25 536 l 5
 41 568 l 5
 105 536 l 5
 105 600 l 5
EndSplineSet
Validated: 1
EndChar

StartChar: plus
Encoding: 43 43 11
Width: 402
VWidth: -200
Flags: W
HStem: 172 64<25 169 233 377>
VStem: 169 64<28 172 236 380>
LayerCount: 2
Fore
SplineSet
169 380 m 5
 233 380 l 5
 233 236 l 5
 377 236 l 5
 377 172 l 5
 233 172 l 5
 233 28 l 5
 169 28 l 5
 169 172 l 5
 25 172 l 5
 25 236 l 5
 169 236 l 5
 169 380 l 5
EndSplineSet
Validated: 1
EndChar

StartChar: comma
Encoding: 44 44 12
Width: 146
VWidth: -200
Flags: W
HStem: -312 112
VStem: 25 96<-280 -232>
LayerCount: 2
Fore
SplineSet
121 -200 m 1
 121 -280 l 1
 25 -312 l 1
 25 -232 l 1
 121 -200 l 1
EndSplineSet
Validated: 1
EndChar

StartChar: hyphen
Encoding: 45 45 13
Width: 322
VWidth: -400
Flags: W
HStem: 152 64<25 297>
VStem: 25 272<152 216>
LayerCount: 2
Fore
SplineSet
25 216 m 5
 297 216 l 5
 297 152 l 5
 25 152 l 5
 25 216 l 5
EndSplineSet
Validated: 1
EndChar

StartChar: period
Encoding: 46 46 14
Width: 114
VWidth: -200
Flags: W
HStem: -200 80<25 89>
VStem: 25 64<-200 -120>
LayerCount: 2
Fore
SplineSet
25 -120 m 5
 89 -120 l 5
 89 -200 l 5
 25 -200 l 5
 25 -120 l 5
EndSplineSet
Validated: 1
EndChar

StartChar: slash
Encoding: 47 47 15
Width: 289
VWidth: -200
Flags: W
HStem: -200.031 21G<25 92.4> -200.031 21G<25 92.4> 579.969 20G<196.6 264> 579.969 20G<196.6 264>
VStem: 25 239
LayerCount: 2
Fore
SplineSet
201 599.96875 m 5xa8
 264 599.96875 l 5
 88 -200.03125 l 5
 25 -200.03125 l 5
 201 599.96875 l 5xa8
EndSplineSet
Validated: 1
EndChar

StartChar: zero
Encoding: 48 48 16
Width: 290
VWidth: -200
Flags: W
HStem: -200 64<89.0711 200.929> 536.004 63.9961<89.0476 200.963>
VStem: 25 64<-135.937 535.954> 201 64<-135.937 535.934>
LayerCount: 2
Fore
SplineSet
89 600 m 6
 201 600 l 6
 233.025390625 600 265 568 265 536 c 6
 265 -136 l 6
 265 -168 233.025390625 -200 201 -200 c 6
 89 -200 l 6
 56.974609375 -200 25 -168 25 -136 c 6
 25 536 l 6
 25 568 56.974609375 600 89 600 c 6
115.28125 536 m 4
 89.4423828125 535.887695312 88.9990234375 534.125 88.9990234375 506.985351562 c 0
 88.9990234375 506.022460938 89 505.02734375 89 504 c 6
 89 -104 l 6
 89 -135.998046875 89.2099609375 -136 120.98828125 -136 c 0
 121 -136 l 6
 169 -136 l 6
 169.01171875 -136 l 0
 200.791992188 -136 201 -135.998046875 201 -104 c 6
 201 504 l 6
 201 505.03125 201.000976562 506.029296875 201.000976562 506.99609375 c 0
 201.000976562 535.76953125 200.500976562 536 169.739257812 536 c 0
 169 536 l 6
 121 536 l 6
 119.643554688 536 118.34765625 536.00390625 117.104492188 536.00390625 c 0
 116.483398438 536.00390625 115.875976562 536.002929688 115.28125 536 c 4
EndSplineSet
Validated: 1
EndChar

StartChar: one
Encoding: 49 49 17
Width: 162
VWidth: -200
Flags: W
HStem: -200 21G<73 137> -200 21G<73 137> 536 64<25 73>
VStem: 25 112<536 600> 73 64<-200 536>
LayerCount: 2
Fore
SplineSet
25 600 m 5xb0
 73 600 l 5xa8
 137 600 l 5xb0
 137 -200 l 5
 73 -200 l 5
 73 536 l 5xa8
 25 536 l 5
 25 600 l 5xb0
EndSplineSet
Validated: 1
EndChar

StartChar: two
Encoding: 50 50 18
Width: 258
VWidth: -200
Flags: W
HStem: -200 64<89.1938 232.812> 152 64<89.1399 169.515> 536 64<25 168.78>
VStem: 25.3125 63.5938<-135.624 151.938> 168.781 64.2812<216.055 535.955>
LayerCount: 2
Fore
SplineSet
25 600 m 5
 169.125 600 l 6
 201.08984375 600 233.0625 568 233.0625 536 c 6
 233.0625 208 l 6
 233.0625 176 201.24609375 152 169.28125 152 c 6
 121.0625 152 l 6
 89.09765625 152 89.109375 152 89.0625 120 c 6
 88.90625 -96 l 6
 89.06640625 -136 89.0947265625 -136 121.0625 -136 c 6
 233.0625 -136 l 5
 232.8125 -200 l 5
 89.0625 -200 l 6
 57.09765625 -200 25.349609375 -160 25.3125 -128 c 6
 25 152 l 6
 25 184 56.97265625 216 88.9375 216 c 6
 137 216 l 6
 163.821289062 216 169.51953125 216.044921875 169.51953125 234.931640625 c 0
 169.51953125 238.551757812 169.309570312 242.86328125 169 248 c 5
 168.78125 384 l 5
 168.78125 512 l 6
 168.78125 512.795898438 l 0
 168.78125 535.998046875 168.604492188 536 137.015625 536 c 0
 137 536 l 6
 25 536 l 5
 25 600 l 5
EndSplineSet
Validated: 1
EndChar

StartChar: three
Encoding: 51 51 19
Width: 258
VWidth: -200
Flags: W
HStem: -200 64<25 169> 152 64<25 169> 536 64<25 169>
VStem: 169 64<-136 152 216 536>
LayerCount: 2
Fore
SplineSet
25 600 m 5
 169 600 l 6
 201 600 233 568 233 536 c 6
 233 216 l 5
 185 184 l 5
 233 152 l 5
 233 -136 l 6
 233 -168 201 -200 169 -200 c 6
 25 -200 l 5
 25 -136 l 5
 169 -136 l 5
 169 152 l 5
 25 152 l 5
 25 216 l 5
 169 216 l 5
 169 536 l 5
 25 536 l 5
 25 600 l 5
EndSplineSet
Validated: 1
EndChar

StartChar: four
Encoding: 52 52 20
Width: 290
VWidth: -200
Flags: W
HStem: -200 21G<201 265> -200 21G<201 265> 152 64<89 201> 580 20G<25 89 201 265> 580 20G<25 89 201 265>
VStem: 25 64<216 600> 201 64<-200 152 216 600>
LayerCount: 2
Fore
SplineSet
25 600 m 5xb6
 89 600 l 5
 89 216 l 5
 201 216 l 5
 201 600 l 5
 265 600 l 5
 265 -200 l 5
 201 -200 l 5
 201 152 l 5
 25 152 l 5
 25 600 l 5xb6
EndSplineSet
Validated: 1
EndChar

StartChar: five
Encoding: 53 53 21
Width: 258
VWidth: -200
Flags: W
HStem: -200 64<25 169.03> 152 64<89.344 169.002> 536 64<89 233>
VStem: 25 64.2812<216.063 536> 169.094 63.6562<-135.938 151.937>
LayerCount: 2
Fore
SplineSet
25 600 m 5
 233 600 l 5
 233 536 l 5
 89 536 l 5
 89.28125 376 l 5
 89.28125 248 l 6
 89.28125 216.000976562 89.2880859375 216 121.25 216 c 6
 168.8125 216 l 6
 200.77734375 216 232.75 184 232.75 152 c 6
 232.75 -136 l 6
 232.75 -168 200.77734375 -200 168.8125 -200 c 6
 25 -200 l 5
 25 -136 l 5
 137.15625 -136 l 6
 169.06640625 -136 169.09375 -136 169.09375 -104.1640625 c 0
 169.09375 -104 l 6
 169.09375 120 l 6
 168.98828125 151.999023438 169.12109375 152 137.162109375 152 c 0
 137.15625 152 l 6
 88.9375 152 l 6
 56.97265625 152 25 184 25 216 c 6
 25 600 l 5
EndSplineSet
Validated: 1
EndChar

StartChar: six
Encoding: 54 54 22
Width: 290
VWidth: -200
Flags: W
HStem: -200 64<88.9996 200.812> 152.005 63.9951<89.0119 200.828> 580 20G<25 88.7334> 580 20G<25 88.7334>
VStem: 25 63.9375<-135.93 151.939 216 600> 200.875 64.125<-135.938 151.941>
LayerCount: 2
Fore
SplineSet
25 600 m 5xec
 88.71875 600 l 5
 89 216 l 5
 201 216 l 6
 233 216 265 184 265 152 c 6
 265 -136 l 6
 265 -168 233.015625 -200 201.03125 -200 c 6
 89 -200 l 6
 57 -200 25 -168 25 -136 c 6
 25 600 l 5xec
115.3125 152 m 4
 88.958984375 151.83984375 88.9375 149.588867188 88.9375 119 c 6
 88.9375 -104 l 6
 88.9375 -135.825195312 88.953125 -136 120.413085938 -136 c 0
 120.9375 -136 l 6
 168.90625 -136 l 6
 200.859375 -136 200.875 -136 200.875 -104.09375 c 0
 200.875 -104 l 6
 200.875 121 l 6
 200.875 121.965820312 l 0
 200.875 151.999023438 200.708984375 152 169 152 c 6
 120.9375 152 l 6
 119.604492188 152 118.330078125 152.004882812 117.107421875 152.004882812 c 0
 116.49609375 152.004882812 115.8984375 152.00390625 115.3125 152 c 4
EndSplineSet
Validated: 1
EndChar

StartChar: seven
Encoding: 55 55 23
Width: 292
VWidth: -200
Flags: W
HStem: -200 21G<203.906 266.656> -200 21G<203.906 266.656> 537.25 62.75<0 203.906>
VStem: 203.906 62.75<-200 537.25>
LayerCount: 2
Fore
SplineSet
0 600 m 5xb0
 266.65625 600 l 5
 266.65625 -200 l 5
 203.90625 -200 l 5
 203.90625 537.25 l 5
 0 537.25 l 5
 0 600 l 5xb0
EndSplineSet
Validated: 524289
EndChar

StartChar: eight
Encoding: 56 56 24
Width: 306
VWidth: -200
Flags: W
HStem: -200 64<89.049 216.937> 152.004 63.9961<89.0893 216.916> 536.004 63.9961<88.9616 216.937>
VStem: 25 64<-135.94 151.951 216.08 535.94> 217 64<-135.938 151.939 216.061 535.938>
LayerCount: 2
Fore
SplineSet
89 600 m 6
 217 600 l 6
 248.993164062 600 281 568 281 536 c 6
 281 216 l 5
 232.5 184 l 5
 281 152 l 5
 281 -136 l 6
 281 -168 264.993164062 -200 233 -200 c 6
 89 -200 l 6
 57 -200 25 -168 25 -136 c 6
 25 152 l 5
 89 184 l 5
 25 216 l 5
 25 536 l 6
 25.8876953125 567.987304688 57 600 89 600 c 6
115.3125 536 m 4
 91.251953125 535.89453125 88.9443359375 534.346679688 88.9443359375 511.920898438 c 0
 88.9443359375 509.526367188 88.970703125 506.893554688 89 504 c 6
 89 249 l 6
 89 216.37109375 89.0068359375 216 121 216 c 6
 184.5 216 l 6
 216.407226562 216 217 216 217 247 c 6
 217 504 l 6
 217 536 216.993164062 536 185 536 c 6
 121 536 l 6
 119.653320312 536 118.36328125 536.00390625 117.126953125 536.00390625 c 0
 116.508789062 536.00390625 115.904296875 536.002929688 115.3125 536 c 4
115.3125 152 m 4
 89.271484375 151.881835938 89 150.017578125 89 120.897460938 c 0
 89 120.27734375 89 119.645507812 89 119 c 6
 89 -104 l 6
 89 -105.334960938 l 0
 89 -136 89.2236328125 -136 121 -136 c 6
 185 -136 l 6
 216.994140625 -136 217 -136 217 -104 c 6
 217 121 l 6
 217 152 216.493164062 152 184.5 152 c 6
 121 152 l 6
 119.653320312 152 118.36328125 152.00390625 117.125976562 152.00390625 c 0
 116.5078125 152.00390625 115.903320312 152.002929688 115.3125 152 c 4
EndSplineSet
Validated: 1
EndChar

StartChar: nine
Encoding: 57 57 25
Width: 290
VWidth: -200
Flags: W
HStem: -200 21G<201.265 265> -200 21G<201.265 265> 152 64<89.172 200.973> 536.004 63.9961<89.1769 201>
VStem: 25 64.125<216.059 535.951> 201.281 63.7188<-200 152 216.08 535.93>
LayerCount: 2
Fore
SplineSet
88.96875 600 m 6xbc
 201 600 l 6
 233 600 265 568 265 536 c 6
 265 -200 l 5
 201.28125 -200 l 5
 201 152 l 5
 89 152 l 6
 57 152 25 184 25 216 c 6
 25 536 l 6
 25 568 56.984375 600 88.96875 600 c 6xbc
115.46875 536 m 4
 89.134765625 535.8828125 89.125 534.002929688 89.125 504.06640625 c 0
 89.125 504 l 6
 89.125 247 l 6
 89.125 246.034179688 l 0
 89.125 216.000976562 89.291015625 216 121 216 c 6
 169.0625 216 l 6
 201.046875 216 201.0625 216.37109375 201.0625 249 c 6
 201.0625 504 l 6
 201.0625 535.825195312 201.046875 536 169.586914062 536 c 0
 169.0625 536 l 6
 121.09375 536 l 6
 119.760742188 536 118.486328125 536.00390625 117.263671875 536.00390625 c 0
 116.65234375 536.00390625 116.0546875 536.002929688 115.46875 536 c 4
EndSplineSet
Validated: 1
EndChar

StartChar: colon
Encoding: 58 58 26
Width: 114
VWidth: -400
Flags: W
VStem: 25 64<-40 104 296 440>
LayerCount: 2
Fore
SplineSet
25 440 m 1
 89 440 l 1
 89 296 l 1
 25 296 l 1
 25 440 l 1
25 104 m 1
 89 104 l 1
 89 -40 l 1
 25 -40 l 1
 25 104 l 1
EndSplineSet
Validated: 1
EndChar

StartChar: semicolon
Encoding: 59 59 27
Width: 114
VWidth: -400
Flags: W
HStem: -200 21G<25 89> -200 21G<25 89>
VStem: 25 64<-200 104 296 440>
LayerCount: 2
Fore
SplineSet
25 440 m 1x20
 89 440 l 1
 89 296 l 1
 25 296 l 1
 25 440 l 1x20
25 104 m 1
 89 104 l 1
 89 -200 l 1
 25 -200 l 1xa0
 25 104 l 1
EndSplineSet
Validated: 1
EndChar

StartChar: less
Encoding: 60 60 28
Width: 338
VWidth: -200
Flags: W
VStem: 25 288
LayerCount: 2
Fore
SplineSet
313 520 m 5
 313 440 l 5
 73 184 l 5
 313 -40 l 5
 313 -120 l 5
 25 152 l 5
 25 216 l 5
 313 520 l 5
EndSplineSet
Validated: 1
EndChar

StartChar: equal
Encoding: 61 61 29
Width: 322
VWidth: -400
Flags: W
HStem: 88 64<25 297> 216 64<25 297>
VStem: 25 272<88 152 216 280>
LayerCount: 2
Fore
SplineSet
25 280 m 5
 297 280 l 5
 297 216 l 5
 25 216 l 5
 25 280 l 5
25 152 m 5
 297 152 l 5
 297 88 l 5
 25 88 l 5
 25 152 l 5
EndSplineSet
Validated: 1
EndChar

StartChar: greater
Encoding: 62 62 30
Width: 338
VWidth: -200
Flags: W
VStem: 25 288
LayerCount: 2
Fore
SplineSet
25 520 m 5
 313 216 l 5
 313 152 l 5
 25 -120 l 5
 25 -40 l 5
 265 184 l 5
 25 440 l 5
 25 520 l 5
EndSplineSet
Validated: 1
EndChar

StartChar: question
Encoding: 63 63 31
Width: 274
VWidth: -200
Flags: W
HStem: -200 80<25 89> 152 64<89.0774 184.949> 536 64<25 184.78>
VStem: 25 64<-200 -120 -72 151.592> 184.781 64.2188<216.056 535.955>
LayerCount: 2
Fore
SplineSet
25 600 m 5
 185.0625 600 l 6
 217.02734375 600 249 568 249 536 c 6
 249 208 l 6
 249 176 217.18359375 152 185.21875 152 c 6
 121 152 l 6
 89.03515625 152 89.046875 152 89 120 c 6
 89 -72 l 5
 25 -72 l 5
 25 150 l 6
 25 184 57 216 89 216 c 6
 153 216 l 6
 153.052734375 216 l 0
 183.828125 216 185.002929688 216.0078125 185.002929688 244.709960938 c 0
 185.002929688 245.766601562 185.001953125 246.86328125 185 248 c 6
 184.78125 384 l 5
 184.78125 512 l 6
 184.78125 512.795898438 l 0
 184.78125 535.998046875 184.604492188 536 153.015625 536 c 0
 153 536 l 6
 25 536 l 5
 25 600 l 5
25 -120 m 5
 89 -120 l 5
 89 -200 l 5
 25 -200 l 5
 25 -120 l 5
EndSplineSet
Validated: 1
EndChar

StartChar: at
Encoding: 64 64 32
Width: 370
VWidth: -200
Flags: W
HStem: -200 64<88.8215 344> -24 64<200.508 280.179> 312.004 63.9961<200.485 280.214> 536 64<88.7865 280.182>
VStem: 25 63.75<-135.937 535.934> 136.656 63.7812<40.0626 311.954> 280.25 64.75<40.0626 311.934 376 535.934>
LayerCount: 2
Fore
SplineSet
88.84375 600 m 2
 280.15625 600 l 2
 312.10546875 600 344 568 344 536 c 2
 345 40 l 2
 345 8 313 -24 282 -24 c 2
 200.5 -24 l 2
 168.575195312 -24 136.65625 8 136.65625 40 c 2
 136.65625 312 l 2
 136.65625 344 169.000976562 376 200.5 376 c 2
 280.21875 376 l 1
 280.21875 504 l 2
 280.21875 505.0625 280.219726562 506.08984375 280.219726562 507.083007812 c 0
 280.219726562 535.76953125 279.706054688 536 249.049804688 536 c 0
 248.3125 536 l 2
 120.6875 536 l 2
 119.950195312 536 l 0
 89.240234375 536 88.7490234375 535.76953125 88.7490234375 506.946289062 c 0
 88.7490234375 505.99609375 88.75 505.013671875 88.75 504 c 1
 88.75 -104 l 2
 88.75 -135.998046875 88.97265625 -136 120.67578125 -136 c 0
 120.6875 -136 l 2
 345 -136 l 1
 344 -200 l 1
 88.84375 -200 l 2
 56.8935546875 -200 25 -168 25 -136 c 2
 25 536 l 2
 25 568 56.8935546875 600 88.84375 600 c 2
226.65625 312 m 0
 200.879882812 311.887695312 200.436523438 310.125 200.436523438 282.9921875 c 0
 200.436523438 282.02734375 200.4375 281.030273438 200.4375 280 c 2
 200.4375 72 l 2
 200.4375 40.001953125 200.62890625 40 232.33203125 40 c 0
 232.34375 40 l 2
 248.3125 40 l 2
 248.32421875 40 l 0
 280.02734375 40 280.25 40.001953125 280.25 72 c 2
 280.25 280 l 2
 280.25 281.004882812 280.250976562 281.978515625 280.250976562 282.921875 c 0
 280.250976562 311.76953125 279.764648438 312 249.049804688 312 c 0
 248.3125 312 l 2
 232.34375 312 l 2
 230.991210938 312 229.705078125 312.00390625 228.470703125 312.00390625 c 0
 227.853515625 312.00390625 227.249023438 312.002929688 226.65625 312 c 0
EndSplineSet
Validated: 1
EndChar

StartChar: A
Encoding: 65 65 33
Width: 372
VWidth: -200
Flags: W
HStem: -200 21G<10 76.8309 295.169 362> -200 21G<10 76.8309 295.169 362> 72 48<125 247> 580 20G<134.8 237.2> 580 20G<134.8 237.2>
LayerCount: 2
Fore
SplineSet
138 600 m 1xb0
 234 600 l 1
 362 -200 l 1
 298 -200 l 1
 259.5 72 l 1
 112.5 72 l 1
 74 -200 l 1
 10 -200 l 1
 138 600 l 1xb0
186 520 m 1
 125 120 l 1
 247 120 l 1
 186 520 l 1
EndSplineSet
Validated: 524289
EndChar

StartChar: B
Encoding: 66 66 34
Width: 337
VWidth: -200
Flags: W
HStem: -200 64<89.0178 248.875> 168.004 63.9961<89.0581 248.865> 536.004 63.9961<88.9313 248.875>
VStem: 25 63.9688<-135.94 167.951 232.08 535.94> 248.938 63.9688<-135.938 167.939 232.061 535.938>
LayerCount: 2
Fore
SplineSet
25 600 m 5
 248.90625 600 l 6
 280.90625 600 312.90625 568 312.90625 536 c 6
 312.6875 232 l 5
 264.90625 200 l 5
 312.90625 168 l 5
 312.90625 -136 l 6
 312.90625 -168 280.90625 -200 248.90625 -200 c 6
 25 -200 l 5
 25 600 l 5
115.28125 536 m 4
 91.220703125 535.89453125 88.9140625 534.346679688 88.9140625 511.908203125 c 0
 88.9140625 509.516601562 88.939453125 506.888671875 88.96875 504 c 6
 88.96875 265 l 6
 88.96875 232.37109375 88.9755859375 232 120.96875 232 c 6
 216.71875 232 l 6
 248.62890625 232 248.9375 232 248.9375 263 c 6
 248.9375 504 l 6
 248.9375 536 248.930664062 536 216.9375 536 c 6
 120.96875 536 l 6
 119.622070312 536 118.33203125 536.00390625 117.095703125 536.00390625 c 0
 116.477539062 536.00390625 115.873046875 536.002929688 115.28125 536 c 4
115.28125 168 m 4
 89.2353515625 167.881835938 88.96875 166.016601562 88.96875 136.8671875 c 0
 88.96875 136.256835938 88.96875 135.634765625 88.96875 135 c 6
 88.96875 -104 l 6
 88.96875 -105.334960938 l 0
 88.96875 -136 89.1923828125 -136 120.96875 -136 c 6
 216.9375 -136 l 6
 248.930664062 -136 248.9375 -136 248.9375 -104 c 6
 248.9375 137 l 6
 248.9375 168 248.711914062 168 216.71875 168 c 6
 120.96875 168 l 6
 119.622070312 168 118.331054688 168.00390625 117.094726562 168.00390625 c 0
 116.4765625 168.00390625 115.872070312 168.002929688 115.28125 168 c 4
EndSplineSet
Validated: 1
EndChar

StartChar: C
Encoding: 67 67 35
Width: 306
VWidth: -200
Flags: W
HStem: -200 64<89.0611 217> 535.906 63.9688<89.0625 217>
VStem: 25 64<-135.927 535.836> 217 64<-136 -40.0312 472 536>
LayerCount: 2
Back
SplineSet
227 600 m 6
 259 600.032226562 291 568 291 536 c 6
 291 472 l 5
 227 472 l 5
 227 536 l 5
 131 535.90625 l 6
 99 535.879882812 99 535.90234375 99 503.90625 c 6
 99 -104 l 6
 99 -136 99 -136.001953125 131 -136 c 6
 227 -136 l 5
 227 -40.03125 l 5
 291 -40 l 5
 291 -136 l 6
 291 -168 259 -200 227 -200 c 6
 99 -200 l 6
 67 -199.998046875 35 -168 35 -136 c 6
 35 536 l 6
 35 568 67 600.002929688 99 599.875 c 6
 227 600 l 6
EndSplineSet
Fore
SplineSet
217 600 m 6
 217.047851562 600 l 0
 249.032226562 600 281 567.984375 281 536 c 6
 281 472 l 5
 217 472 l 5
 217 536 l 5
 121 535.90625 l 6
 89 535.879882812 89 535.90234375 89 503.90625 c 6
 89 -104 l 6
 89 -135.75390625 89 -136 120.267578125 -136 c 0
 121 -136 l 6
 217 -136 l 5
 217 -40.03125 l 5
 281 -40 l 5
 281 -136 l 6
 281 -168 249 -200 217 -200 c 6
 89 -200 l 6
 57 -199.998046875 25 -168 25 -136 c 6
 25 536 l 6
 25 567.936523438 56.873046875 599.875 88.80859375 599.875 c 0
 89 599.875 l 6
 217 600 l 6
EndSplineSet
Validated: 1
EndChar

StartChar: D
Encoding: 68 68 36
Width: 306
VWidth: -200
Flags: W
HStem: -200 64<88.9018 216.844> 536.004 63.9961<88.8118 216.869>
VStem: 25 63.8438<-135.958 535.961> 216.906 64.0938<-135.938 535.937>
LayerCount: 2
Fore
SplineSet
25 600 m 5
 216.9375 600 l 6
 248.962890625 600 281 568 281 536 c 6
 281 -136 l 6
 281 -168 248.962890625 -200 216.9375 -200 c 6
 25 -200 l 5
 25 600 l 5
114.84375 536 m 4
 90.36328125 535.896484375 88.810546875 534.447265625 88.810546875 514.111328125 c 0
 88.810546875 511.157226562 88.84375 507.8046875 88.84375 504 c 6
 88.84375 -104 l 6
 88.84375 -135.999023438 88.84765625 -136 118.494140625 -136 c 0
 118.5 -136 l 6
 185.125 -136 l 6
 185.13671875 -136 l 0
 216.897460938 -136 216.90625 -135.998046875 216.90625 -104.052734375 c 0
 216.90625 -104 l 5
 216.90625 504 l 6
 216.90625 505.03125 216.907226562 506.029296875 216.907226562 506.99609375 c 0
 216.907226562 535.8359375 216.405273438 536 185.430664062 536 c 0
 184.90625 536 l 6
 120.875 536 l 6
 119.444335938 536 118.071289062 536.00390625 116.76171875 536.00390625 c 0
 116.106445312 536.00390625 115.466796875 536.002929688 114.84375 536 c 4
EndSplineSet
Validated: 1
EndChar

StartChar: E
Encoding: 69 69 37
Width: 290
VWidth: -200
Flags: W
HStem: -200 64<89 265> 168 64<89 265> 536 64<89 265>
VStem: 25 240<-200 -136 168 232 536 600> 25 64<-136 168 232 536>
CounterMasks: 1 e0
LayerCount: 2
Fore
SplineSet
25 600 m 5xf0
 265 600 l 5
 265 536 l 5xf0
 89 536 l 5
 89 232 l 5xe8
 265 232 l 5
 265 168 l 5xf0
 89 168 l 5
 89 -136 l 5xe8
 265 -136 l 5
 265 -200 l 5
 25 -200 l 5
 25 600 l 5xf0
EndSplineSet
Validated: 1
EndChar

StartChar: F
Encoding: 70 70 38
Width: 290
VWidth: -200
Flags: W
HStem: -200 21G<25 89> -200 21G<25 89> 168 64<89 265> 536 64<89 265>
VStem: 25 64<-200 168 232 536>
LayerCount: 2
Fore
SplineSet
25 600 m 5xb8
 265 600 l 5
 265 536 l 5
 89 536 l 5
 89 232 l 5
 265 232 l 5
 265 168 l 5
 89 168 l 5
 89 -104 l 5
 89 -200 l 5
 25 -200 l 5
 25 600 l 5xb8
EndSplineSet
Validated: 1
EndChar

StartChar: G
Encoding: 71 71 39
Width: 322
VWidth: -200
Flags: W
HStem: -200 64<89.0611 233> 168 64<169 233> 535.906 63.9688<89.0625 233>
VStem: 25 64<-135.927 535.837> 169 128<168 232> 233 64<-136 167.969 440 536>
LayerCount: 2
Fore
SplineSet
233 600 m 6xf4
 233.041992188 600 l 0
 265.029296875 600 297 567.987304688 297 536 c 6
 297 440 l 5
 233 440 l 5
 233 536 l 5
 121 535.90625 l 6
 89.0009765625 535.883789062 89 535.90234375 89 503.912109375 c 0
 89 503.90625 l 6
 89 -104 l 6
 89 -104.005859375 l 0
 89 -135.75390625 89.0009765625 -136 120.267578125 -136 c 0
 121 -136 l 6
 233 -136 l 5
 233 167.96875 l 5xf4
 169 168 l 5
 169 232 l 5
 297 232 l 5xf8
 297 -136 l 6
 297 -168.000976562 265.000976562 -200 233 -200 c 6
 89 -200 l 6
 56.9990234375 -199.998046875 25 -168.000976562 25 -136 c 6
 25 536 l 6
 25 567.936523438 56.87109375 599.875 88.8076171875 599.875 c 0
 89 599.875 l 6
 233 600 l 6xf4
EndSplineSet
Validated: 1
EndChar

StartChar: H
Encoding: 72 72 40
Width: 322
VWidth: -200
Flags: W
HStem: -200 21G<25 89 233 297> -200 21G<25 89 233 297> 168 64<89 233> 580 20G<25 89 233 297> 580 20G<25 89 233 297>
VStem: 25 64<-200 168 232 600> 233 64<-200 168 232 600>
LayerCount: 2
Fore
SplineSet
25 600 m 5xb6
 89 600 l 5
 89 232 l 5
 233 232 l 5
 233 600 l 5
 297 600 l 5
 297 -200 l 5
 233 -200 l 5
 233 168 l 5
 89 168 l 5
 89 -200 l 5
 25 -200 l 5
 25 600 l 5xb6
EndSplineSet
Validated: 1
EndChar

StartChar: J
Encoding: 74 74 41
Width: 290
VWidth: -200
Flags: W
HStem: -200 64<89.071 200.957> 580 20G<201 265> 580 20G<201 265>
VStem: 25 64<-135.937 24> 201 64<-135.974 600>
LayerCount: 2
Fore
SplineSet
201 600 m 5xd8
 265 600 l 5
 265 -136 l 6
 265 -168 249 -200 217 -200 c 6
 89 -200 l 6
 56.974609375 -200 25 -168 25 -136 c 6
 25 24 l 5
 89 24 l 5
 89 -104 l 6
 89 -135.998046875 89.2080078125 -136 120.98828125 -136 c 0
 121 -136 l 6
 171.5 -136 l 6
 171.505859375 -136 l 0
 200.850585938 -136 201 -135.999023438 201 -104.966796875 c 0
 201 -104 l 5
 201 600 l 5xd8
EndSplineSet
Validated: 1
EndChar

StartChar: K
Encoding: 75 75 42
Width: 330
VWidth: -800
Flags: W
HStem: -200 21G<25 88.5292 240.504 304.53> -200 21G<25 88.5292 240.504 304.53> 168 64<89.001 225.253> 580 20G<25 89 240.088 304.997> 580 20G<25 89 240.088 304.997>
VStem: 25 63.501<-200 168 232 600> 225.003 63.9971<248 402.028> 240.504 64<-200 168 452.336 600>
LayerCount: 2
Fore
SplineSet
25 600 m 5xb5
 89 600 l 5
 89 248 l 6
 89 232 89 232 105 232 c 6
 209 232 l 6
 225 232 225.002929688 232 225.002929688 248 c 6
 240.997070312 600 l 5
 304.997070312 600 l 5
 289 248 l 5xb6
 257 216 l 5
 305 184 l 5
 304.50390625 -200 l 5
 240.50390625 -200 l 5
 241 152 l 6
 241 168 241 168 225 168 c 6
 104.997070312 168 l 6
 88.9970703125 168 88.9970703125 168 88.9970703125 152 c 6
 88.5009765625 -200 l 5
 25 -200 l 5
 25 600 l 5xb5
EndSplineSet
Validated: 1
EndChar

StartChar: L
Encoding: 76 76 43
Width: 259
VWidth: -200
Flags: W
HStem: -200 64<89 249> 580 20G<25 89> 580 20G<25 89>
VStem: 25 64<-136 600>
LayerCount: 2
Fore
SplineSet
25 600 m 5xd0
 89 600 l 5
 89 -136 l 5
 249 -136 l 5
 249 -200 l 5
 25 -200 l 5
 25 600 l 5xd0
EndSplineSet
Validated: 1
EndChar

StartChar: M
Encoding: 77 77 44
Width: 402
VWidth: -200
Flags: W
HStem: -200 21G<25 89.0001 313 376.999> -200 21G<25 89.0001 313 376.999> 580 20G<25 78.9299 323.079 376.999> 580 20G<25 78.9299 323.079 376.999>
VStem: 25 64<-200 312> 25 48<576.391 600> 313 63.999<-200 312> 329.001 47.998<576.359 600>
LayerCount: 2
Fore
SplineSet
25 -200 m 5xaa
 25 600 l 5
 73 600 l 5
 201.084960938 168 l 5
 329.000976562 600 l 5
 376.999023438 600 l 5xa5
 376.999023438 -200 l 5
 313 -200 l 5
 313.002929688 312 l 5
 201.001953125 -24 l 5
 89.001953125 312 l 5
 89 -200 l 5
 25 -200 l 5xaa
EndSplineSet
Validated: 524289
EndChar

StartChar: N
Encoding: 78 78 45
Width: 370
VWidth: -200
Flags: W
HStem: -200 21G<25 89.0312 274.806 345> -200 21G<25 89.0312 274.806 345> 580 20G<25 95.2436 280.969 345> 580 20G<25 95.2436 280.969 345>
VStem: 25 64.0312<-200 424 578.36 600> 280.969 64.0312<-200 -177.283 -24 600>
LayerCount: 2
Fore
SplineSet
25 600 m 5xac
 89.09375 600 l 5
 280.96875 -24 l 5
 280.96875 600 l 5
 345 600 l 5
 345 -200 l 5
 280.96875 -200 l 5
 88.6875 424 l 5
 89.03125 -200 l 5
 25 -200 l 5
 25 600 l 5xac
EndSplineSet
Validated: 1
EndChar

StartChar: O
Encoding: 79 79 46
Width: 322
VWidth: -200
Flags: W
HStem: -200 64<89.0711 232.929> 536.004 63.9961<89.0476 232.963>
VStem: 25 64<-135.937 535.954> 233 64<-135.937 535.934>
LayerCount: 2
Fore
SplineSet
89 600 m 6
 201 600 l 5
 233 600 l 6
 265.025390625 600 297 568 297 536 c 6
 297 -136 l 6
 297 -168 265.025390625 -200 233 -200 c 6
 201 -200 l 5
 89 -200 l 6
 56.974609375 -200 25 -168 25 -136 c 6
 25 536 l 6
 25 568 56.974609375 600 89 600 c 6
115.28125 536 m 4
 89.4423828125 535.887695312 88.9990234375 534.125 88.9990234375 506.985351562 c 0
 88.9990234375 506.022460938 89 505.02734375 89 504 c 6
 89 -104 l 6
 89 -135.998046875 89.2099609375 -136 120.98828125 -136 c 0
 121 -136 l 6
 201 -136 l 6
 201.01171875 -136 l 0
 232.791992188 -136 233 -135.998046875 233 -104 c 6
 233 504 l 6
 233 505.03125 233.000976562 506.029296875 233.000976562 506.99609375 c 0
 233.000976562 535.76953125 232.500976562 536 201.739257812 536 c 0
 201 536 l 6
 121 536 l 6
 119.643554688 536 118.34765625 536.00390625 117.104492188 536.00390625 c 0
 116.483398438 536.00390625 115.875976562 536.002929688 115.28125 536 c 4
EndSplineSet
Validated: 1
EndChar

StartChar: P
Encoding: 80 80 47
Width: 338
VWidth: -200
Flags: W
HStem: -200 21G<25 88.734> -200 21G<25 88.734> 168 64<89.0273 248.792> 536.229 63.7705<89.0466 248.812>
VStem: 25 63.9375<-200 168 232.08 536.229> 248.875 64.125<232 535.938>
LayerCount: 2
Fore
SplineSet
25 600 m 5xbc
 249.03125 600 l 6
 281.015625 600 313 568 313 536 c 6
 313 232 l 6
 313 200 281 168 249 168 c 6
 89 168 l 5
 88.71875 -200 l 5
 25 -200 l 5
 25 600 l 5xbc
106.53125 536.21875 m 4
 105.258789062 536.1953125 104.061523438 536.125 102.9375 536 c 4
 89.4560546875 534.5 88.9375 528 88.9375 504 c 6
 88.9375 265 l 6
 88.9375 232.37109375 88.953125 232 120.9375 232 c 6
 234.90625 232 l 5
 248.387695312 233.4296875 248.875 240.119140625 248.875 263 c 6
 248.875 504 l 6
 248.875 504.09375 l 0
 248.875 536 248.859375 536 216.90625 536 c 6
 120.9375 536 l 6
 115.592773438 536 111.362304688 536.229492188 107.801757812 536.229492188 c 0
 107.368164062 536.229492188 106.9453125 536.2265625 106.53125 536.21875 c 4
EndSplineSet
Validated: 1
EndChar

StartChar: Q
Encoding: 81 81 48
Width: 322
VWidth: -400
Flags: W
HStem: -200 64<89.0711 232.929> 104 64<185 233> 536.004 63.9961<89.0476 232.963>
VStem: 25 64<-135.937 535.954> 185 112<104 168> 233 64<-135.937 104 168 535.934>
LayerCount: 2
Fore
SplineSet
89 600 m 6xf4
 201 600 l 5
 233 600 l 6
 265.025390625 600 297 568 297 536 c 6
 297 -136 l 6
 297 -168 265.025390625 -200 233 -200 c 6
 201 -200 l 5
 89 -200 l 6
 56.974609375 -200 25 -168 25 -136 c 6
 25 536 l 6
 25 568 56.974609375 600 89 600 c 6xf4
115.28125 536 m 4
 89.4423828125 535.887695312 88.9990234375 534.125 88.9990234375 506.985351562 c 0
 88.9990234375 506.022460938 89 505.02734375 89 504 c 6
 89 -104 l 6
 89 -135.998046875 89.2099609375 -136 120.98828125 -136 c 0
 121 -136 l 6
 201 -136 l 6
 201.01171875 -136 l 0
 232.791992188 -136 233 -135.998046875 233 -104 c 6
 233 104 l 5xf4
 185 104 l 5
 185 168 l 5xf8
 233 168 l 5
 233 504 l 6
 233 505.03125 233.000976562 506.029296875 233.000976562 506.99609375 c 0
 233.000976562 535.76953125 232.500976562 536 201.739257812 536 c 0
 201 536 l 6
 121 536 l 6
 119.643554688 536 118.34765625 536.00390625 117.104492188 536.00390625 c 0
 116.483398438 536.00390625 115.875976562 536.002929688 115.28125 536 c 4
EndSplineSet
Validated: 1
EndChar

StartChar: R
Encoding: 82 82 49
Width: 306
VWidth: -200
Flags: W
HStem: -200 21G<25 88.7374 216.656 280.616> -200 21G<25 88.7374 216.656 280.616> 168 64<89.0584 216.788> 536.229 63.7705<89.0754 216.812>
VStem: 25 63.9766<-200 167.931 232.079 536.229> 216.656 63.9375<-200 167.943 232 535.938>
LayerCount: 2
Fore
SplineSet
25 600 m 5xbc
 217.03125 600 l 6
 249.015625 600 281 568 281 536 c 6
 280.6875 232 l 5
 233 200 l 5
 281 168 l 5
 280.59375 -200 l 5
 216.65625 -200 l 5
 216.96875 137 l 6
 216.969726562 137.686523438 216.969726562 138.358398438 216.969726562 139.014648438 c 0
 216.969726562 168 216.025390625 168 184.75 168 c 6
 121.03125 168 l 6
 91.6396484375 168 88.9765625 168 88.9765625 143.143554688 c 0
 88.9765625 140.680664062 89.001953125 137.974609375 89.03125 135 c 6
 88.71875 -200 l 5
 25 -200 l 5
 25 600 l 5xbc
106.53125 536.21875 m 4
 105.258789062 536.1953125 104.061523438 536.125 102.9375 536 c 4
 89.4560546875 534.5 88.96875 528 88.96875 504 c 6
 88.96875 265 l 6
 88.96875 264.904296875 l 0
 88.96875 232.370117188 88.984375 232 120.9375 232 c 6
 202.90625 232 l 5
 216.387695312 233.4296875 216.875 240.119140625 216.875 263 c 6
 216.875 504 l 6
 216.875 504.09375 l 0
 216.875 536 216.859375 536 184.90625 536 c 6
 120.9375 536 l 6
 115.592773438 536 111.362304688 536.229492188 107.801757812 536.229492188 c 0
 107.368164062 536.229492188 106.9453125 536.2265625 106.53125 536.21875 c 4
EndSplineSet
Validated: 1
EndChar

StartChar: S
Encoding: 83 83 50
Width: 306
VWidth: -200
Flags: W
HStem: -200 64<89.0653 217.062> 168 64<89.2815 217.062> 536 64<89.2815 216.997>
VStem: 25 64.2188<-135.937 -40 232.062 535.938> 217.125 63.5625<-135.938 167.937 440 535.937>
CounterMasks: 1 e0
LayerCount: 2
Fore
SplineSet
88.9375 600 m 6
 216.75 600 l 6
 248.71484375 600 280.6875 568 280.6875 536 c 6
 281 440 l 5
 217.09375 440 l 5
 217.09375 503.875 l 6
 216.98828125 535.999023438 217 536 185.005859375 536 c 0
 185 536 l 6
 121.1875 536 l 6
 89.2255859375 536 89.21875 536 89.21875 504 c 6
 89.21875 312 l 5
 89.21875 264 l 6
 89.21875 232 89.2255859375 232 121.1875 232 c 6
 216.75 232 l 6
 248.71484375 232 280.6875 200 280.6875 168 c 6
 280.6875 -136 l 6
 280.6875 -168 248.71484375 -200 216.75 -200 c 6
 88.9375 -200 l 6
 56.97265625 -200 25 -168 25 -136 c 6
 25.3125 -40 l 5
 89.21875 -40 l 5
 89 -104 l 6
 89 -136 89.0166015625 -135.999023438 122.09375 -136 c 6
 185.15625 -136 l 6
 217.12109375 -136 217.125 -136 217.125 -104 c 6
 217.125 -72 l 5
 217.125 -24 l 5
 217.125 136 l 6
 217.125 167.999023438 217.12109375 168 185.162109375 168 c 0
 185.15625 168 l 6
 88.9375 168 l 6
 56.97265625 168 25 200 25 232 c 6
 25 536 l 6
 25 568 56.97265625 600 88.9375 600 c 6
EndSplineSet
Validated: 1
EndChar

StartChar: T
Encoding: 84 84 51
Width: 308
VWidth: -200
Flags: W
HStem: -200 21G<122 186> -200 21G<122 186> 536 64<10 122 186 298>
VStem: 122 64<-200 536>
LayerCount: 2
Fore
SplineSet
10 600 m 5xb0
 298 600 l 5
 298 536 l 5
 186 536 l 5
 186 -200 l 5
 122 -200 l 5
 122 536 l 5
 10 536 l 5
 10 600 l 5xb0
EndSplineSet
Validated: 1
EndChar

StartChar: U
Encoding: 85 85 52
Width: 306
VWidth: -200
Flags: W
HStem: -200 64<89.0711 216.929> 580 20G<25 89 217 281> 580 20G<25 89 217 281>
VStem: 25 64<-135.937 600> 217 64<-135.937 600>
LayerCount: 2
Fore
SplineSet
25 600 m 5xd8
 89 600 l 5
 89 -104 l 6
 89 -135.998046875 89.2099609375 -136 120.98828125 -136 c 0
 121 -136 l 6
 185 -136 l 6
 185.01171875 -136 l 0
 216.791992188 -136 217 -135.998046875 217 -104 c 6
 217 600 l 5
 281 600 l 5
 281 -136 l 6
 280.65234375 -167.998046875 249.025390625 -200 217 -200 c 6
 169 -200 l 5
 89 -200 l 6
 56.974609375 -200 25 -168 25 -136 c 6
 25 600 l 5xd8
EndSplineSet
Validated: 1
EndChar

StartChar: V
Encoding: 86 86 53
Width: 372
VWidth: -200
Flags: W
HStem: -200 21G<150.4 221.6> -200 21G<150.4 221.6> 580 20G<10 77.5443 294.456 362> 580 20G<10 77.5443 294.456 362>
LayerCount: 2
Fore
SplineSet
10 600 m 5xa0
 74 600 l 5
 186 -32 l 5
 298 600 l 5
 362 600 l 5
 218 -200 l 5
 154 -200 l 5
 10 600 l 5xa0
EndSplineSet
Validated: 1
EndChar

StartChar: W
Encoding: 87 87 54
Width: 370
VWidth: -200
Flags: W
HStem: -200 21G<25.001 80.0063 290.006 345> -200 21G<25.001 80.0063 290.006 345> 580 20G<25.001 89.001 281.001 345> 580 20G<25.001 89.001 281.001 345>
VStem: 25.001 64.002<8 600> 281.003 63.9971<8 600>
LayerCount: 2
Fore
SplineSet
25.0009765625 600 m 5xac
 89.0009765625 600 l 5
 89.0029296875 8 l 5
 185.002929688 296 l 5
 281.002929688 8 l 5
 281.000976562 600 l 5
 345 600 l 5
 345 -200 l 5
 297.000976562 -200 l 5
 185.0859375 120 l 5
 73.0009765625 -200 l 5
 25.0009765625 -200 l 5
 25.0009765625 600 l 5xac
EndSplineSet
Validated: 524289
EndChar

StartChar: backslash
Encoding: 92 92 55
Width: 289
VWidth: -200
Flags: W
HStem: -200.031 21G<196.6 264> -200.031 21G<196.6 264> 579.969 20G<25 92.4> 579.969 20G<25 92.4>
VStem: 25 239
LayerCount: 2
Fore
SplineSet
25 599.96875 m 5xa8
 88 599.96875 l 5
 264 -200.03125 l 5
 201 -200.03125 l 5
 25 599.96875 l 5xa8
EndSplineSet
Validated: 1
EndChar

StartChar: X
Encoding: 88 88 56
Width: 370
VWidth: -200
Flags: W
HStem: -200 21G<25 94.7143 275.286 345> -200 21G<25 94.7143 275.286 345> 580 20G<25 94.2174 275.783 345> 580 20G<25 94.2174 275.783 345>
VStem: 25 64<-200 -175.5>
LayerCount: 2
Fore
SplineSet
25 600 m 5xa8
 89 600 l 5
 185 232 l 5
 281 600 l 5
 345 600 l 5
 249 184 l 5
 345 -200 l 5
 281 -200 l 5
 185 136 l 5
 89 -200 l 5
 25 -200 l 5
 121 184 l 5
 25 600 l 5xa8
EndSplineSet
Validated: 1
EndChar

StartChar: Y
Encoding: 89 89 57
Width: 352
VWidth: -200
Flags: W
HStem: -200 21G<144 208> -200 21G<144 208> 580 20G<0 70.087 281.913 352> 580 20G<0 70.087 281.913 352>
VStem: 0 64<577 600> 144 64<-200 143.333> 288 64<577 600>
CounterMasks: 1 0e
LayerCount: 2
Fore
SplineSet
0 600 m 5xae
 64 600 l 5
 176 232 l 5
 288 600 l 5
 352 600 l 5
 208 120 l 5
 208 56 l 5
 208 -200 l 5
 144 -200 l 5
 144 56 l 5
 144 120 l 5
 0 600 l 5xae
EndSplineSet
Validated: 1
EndChar

StartChar: w
Encoding: 119 119 58
Width: 370
VWidth: -200
Flags: W
HStem: -200 21G<25.001 80.0063 290.006 345> -200 21G<25.001 80.0063 290.006 345> 580 20G<25.001 89.001 281.001 345> 580 20G<25.001 89.001 281.001 345>
VStem: 25.001 64.002<8 600> 281.003 63.9971<8 600>
LayerCount: 2
Fore
SplineSet
25.0009765625 600 m 5xac
 89.0009765625 600 l 5
 89.0029296875 8 l 5
 185.002929688 296 l 5
 281.002929688 8 l 5
 281.000976562 600 l 5
 345 600 l 5
 345 -200 l 5
 297.000976562 -200 l 5
 185.0859375 120 l 5
 73.0009765625 -200 l 5
 25.0009765625 -200 l 5
 25.0009765625 600 l 5xac
EndSplineSet
Validated: 524289
EndChar

StartChar: Z
Encoding: 90 90 59
Width: 306
VWidth: -200
Flags: W
HStem: -200 64<112 281> 536 64<25 194>
VStem: 25 256<-200 -169.515 569.515 600>
LayerCount: 2
Fore
SplineSet
25 600 m 5
 185 600 l 5
 281 600 l 5
 112 -136 l 5
 281 -136 l 5
 281 -200 l 5
 89 -200 l 5
 25 -200 l 5
 194 536 l 5
 25 536 l 5
 25 600 l 5
EndSplineSet
Validated: 1
EndChar

StartChar: bracketleft
Encoding: 91 91 60
Width: 194
VWidth: -200
Flags: W
HStem: -200 64<89 169> 536 64<89 169>
VStem: 25 144<-200 -136 536 600> 25 64<-136 536>
LayerCount: 2
Fore
SplineSet
25 600 m 5xe0
 169 600 l 5
 169 536 l 5xe0
 89 536 l 5
 89 -136 l 5xd0
 169 -136 l 5
 169 -200 l 5
 25 -200 l 5
 25 600 l 5xe0
EndSplineSet
Validated: 1
EndChar

StartChar: bracketright
Encoding: 93 93 61
Width: 194
VWidth: -200
Flags: W
HStem: -200 64<25 105> 536 64<25 105>
VStem: 25 144<-200 -136 536 600> 105 64<-136 536>
LayerCount: 2
Fore
SplineSet
25 600 m 5xe0
 169 600 l 5
 169 -200 l 5
 25 -200 l 5
 25 -136 l 5xe0
 105 -136 l 5
 105 536 l 5xd0
 25 536 l 5
 25 600 l 5xe0
EndSplineSet
Validated: 1
EndChar

StartChar: asciicircum
Encoding: 94 94 62
Width: 414
VWidth: -200
Flags: W
HStem: 388 212
LayerCount: 2
Fore
SplineSet
25 388 m 5
 161 600 l 5
 252 600 l 5
 389 388 l 5
 313 388 l 5
 207 555 l 5
 101 388 l 5
 25 388 l 5
39 376 m 5
EndSplineSet
Validated: 1
EndChar

StartChar: underscore
Encoding: 95 95 63
Width: 418
VWidth: -200
Flags: W
HStem: -200 64<25 393>
LayerCount: 2
Fore
SplineSet
25 -136 m 5
 393 -136 l 5
 393 -200 l 5
 25 -200 l 5
 25 -136 l 5
EndSplineSet
Validated: 1
EndChar

StartChar: grave
Encoding: 96 96 64
Width: 162
VWidth: -200
Flags: W
HStem: 456 144<73 89>
VStem: 25 112
LayerCount: 2
Fore
SplineSet
25 600 m 5
 89 600 l 5
 137 456 l 5
 73 456 l 5
 25 600 l 5
EndSplineSet
Validated: 1
EndChar

StartChar: a
Encoding: 97 97 65
Width: 372
VWidth: -200
Flags: W
HStem: -200 21G<10 76.8309 295.169 362> -200 21G<10 76.8309 295.169 362> 72 48<125 247> 580 20G<134.8 237.2> 580 20G<134.8 237.2>
LayerCount: 2
Fore
SplineSet
138 600 m 5xb0
 234 600 l 5
 362 -200 l 5
 298 -200 l 5
 259.5 72 l 5
 112.5 72 l 5
 74 -200 l 5
 10 -200 l 5
 138 600 l 5xb0
186 520 m 5
 125 120 l 5
 247 120 l 5
 186 520 l 5
EndSplineSet
Validated: 524289
EndChar

StartChar: b
Encoding: 98 98 66
Width: 337
VWidth: -200
Flags: W
HStem: -200 64<89.0178 248.875> 168.004 63.9961<89.0581 248.865> 536.004 63.9961<88.9313 248.875>
VStem: 25 63.9688<-135.94 167.951 232.08 535.94> 248.938 63.9688<-135.938 167.939 232.061 535.938>
LayerCount: 2
Fore
SplineSet
25 600 m 5
 248.90625 600 l 6
 280.90625 600 312.90625 568 312.90625 536 c 6
 312.6875 232 l 5
 264.90625 200 l 5
 312.90625 168 l 5
 312.90625 -136 l 6
 312.90625 -168 280.90625 -200 248.90625 -200 c 6
 25 -200 l 5
 25 600 l 5
115.28125 536 m 4
 91.220703125 535.89453125 88.9140625 534.346679688 88.9140625 511.908203125 c 0
 88.9140625 509.516601562 88.939453125 506.888671875 88.96875 504 c 6
 88.96875 265 l 6
 88.96875 232.37109375 88.9755859375 232 120.96875 232 c 6
 216.71875 232 l 6
 248.62890625 232 248.9375 232 248.9375 263 c 6
 248.9375 504 l 6
 248.9375 536 248.930664062 536 216.9375 536 c 6
 120.96875 536 l 6
 119.622070312 536 118.33203125 536.00390625 117.095703125 536.00390625 c 0
 116.477539062 536.00390625 115.873046875 536.002929688 115.28125 536 c 4
115.28125 168 m 4
 89.2353515625 167.881835938 88.96875 166.016601562 88.96875 136.8671875 c 0
 88.96875 136.256835938 88.96875 135.634765625 88.96875 135 c 6
 88.96875 -104 l 6
 88.96875 -105.334960938 l 0
 88.96875 -136 89.1923828125 -136 120.96875 -136 c 6
 216.9375 -136 l 6
 248.930664062 -136 248.9375 -136 248.9375 -104 c 6
 248.9375 137 l 6
 248.9375 168 248.711914062 168 216.71875 168 c 6
 120.96875 168 l 6
 119.622070312 168 118.331054688 168.00390625 117.094726562 168.00390625 c 0
 116.4765625 168.00390625 115.872070312 168.002929688 115.28125 168 c 4
EndSplineSet
Validated: 1
EndChar

StartChar: c
Encoding: 99 99 67
Width: 306
VWidth: -200
Flags: W
HStem: -200 64<89.0611 217> 535.906 63.9688<89.0625 217>
VStem: 25 64<-135.927 535.836> 217 64<-136 -40.0312 472 536>
LayerCount: 2
Fore
SplineSet
217 600 m 6
 217.047851562 600 l 0
 249.032226562 600 281 567.984375 281 536 c 6
 281 472 l 5
 217 472 l 5
 217 536 l 5
 121 535.90625 l 6
 89 535.879882812 89 535.90234375 89 503.90625 c 6
 89 -104 l 6
 89 -135.75390625 89 -136 120.267578125 -136 c 0
 121 -136 l 6
 217 -136 l 5
 217 -40.03125 l 5
 281 -40 l 5
 281 -136 l 6
 281 -168 249 -200 217 -200 c 6
 89 -200 l 6
 57 -199.998046875 25 -168 25 -136 c 6
 25 536 l 6
 25 567.936523438 56.873046875 599.875 88.80859375 599.875 c 0
 89 599.875 l 6
 217 600 l 6
EndSplineSet
Validated: 1
EndChar

StartChar: d
Encoding: 100 100 68
Width: 306
VWidth: -200
Flags: W
HStem: -200 64<88.9018 216.844> 536.004 63.9961<88.8118 216.869>
VStem: 25 63.8438<-135.958 535.961> 216.906 64.0938<-135.938 535.937>
LayerCount: 2
Fore
SplineSet
25 600 m 5
 216.9375 600 l 6
 248.962890625 600 281 568 281 536 c 6
 281 -136 l 6
 281 -168 248.962890625 -200 216.9375 -200 c 6
 25 -200 l 5
 25 600 l 5
114.84375 536 m 4
 90.36328125 535.896484375 88.810546875 534.447265625 88.810546875 514.111328125 c 0
 88.810546875 511.157226562 88.84375 507.8046875 88.84375 504 c 6
 88.84375 -104 l 6
 88.84375 -135.999023438 88.84765625 -136 118.494140625 -136 c 0
 118.5 -136 l 6
 185.125 -136 l 6
 185.13671875 -136 l 0
 216.897460938 -136 216.90625 -135.998046875 216.90625 -104.052734375 c 0
 216.90625 -104 l 5
 216.90625 504 l 6
 216.90625 505.03125 216.907226562 506.029296875 216.907226562 506.99609375 c 0
 216.907226562 535.8359375 216.405273438 536 185.430664062 536 c 0
 184.90625 536 l 6
 120.875 536 l 6
 119.444335938 536 118.071289062 536.00390625 116.76171875 536.00390625 c 0
 116.106445312 536.00390625 115.466796875 536.002929688 114.84375 536 c 4
EndSplineSet
Validated: 1
EndChar

StartChar: e
Encoding: 101 101 69
Width: 290
VWidth: -200
Flags: W
HStem: -200 64<89 265> 168 64<89 265> 536 64<89 265>
VStem: 25 240<-200 -136 168 232 536 600> 25 64<-136 168 232 536>
CounterMasks: 1 e0
LayerCount: 2
Fore
SplineSet
25 600 m 5xf0
 265 600 l 5
 265 536 l 5xf0
 89 536 l 5
 89 232 l 5xe8
 265 232 l 5
 265 168 l 5xf0
 89 168 l 5
 89 -136 l 5xe8
 265 -136 l 5
 265 -200 l 5
 25 -200 l 5
 25 600 l 5xf0
EndSplineSet
Validated: 1
EndChar

StartChar: f
Encoding: 102 102 70
Width: 290
VWidth: -200
Flags: W
HStem: -200 21G<25 89> -200 21G<25 89> 168 64<89 265> 536 64<89 265>
VStem: 25 64<-200 168 232 536>
LayerCount: 2
Fore
SplineSet
25 600 m 5xb8
 265 600 l 5
 265 536 l 5
 89 536 l 5
 89 232 l 5
 265 232 l 5
 265 168 l 5
 89 168 l 5
 89 -104 l 5
 89 -200 l 5
 25 -200 l 5
 25 600 l 5xb8
EndSplineSet
Validated: 1
EndChar

StartChar: g
Encoding: 103 103 71
Width: 322
VWidth: -200
Flags: W
HStem: -200 64<89.0611 233> 168 64<169 233> 535.906 63.9688<89.0625 233>
VStem: 25 64<-135.927 535.837> 169 128<168 232> 233 64<-136 167.969 440 536>
LayerCount: 2
Fore
SplineSet
233 600 m 6xf4
 233.041992188 600 l 0
 265.029296875 600 297 567.987304688 297 536 c 6
 297 440 l 5
 233 440 l 5
 233 536 l 5
 121 535.90625 l 6
 89.0009765625 535.883789062 89 535.90234375 89 503.912109375 c 0
 89 503.90625 l 6
 89 -104 l 6
 89 -104.005859375 l 0
 89 -135.75390625 89.0009765625 -136 120.267578125 -136 c 0
 121 -136 l 6
 233 -136 l 5
 233 167.96875 l 5xf4
 169 168 l 5
 169 232 l 5
 297 232 l 5xf8
 297 -136 l 6
 297 -168.000976562 265.000976562 -200 233 -200 c 6
 89 -200 l 6
 56.9990234375 -199.998046875 25 -168.000976562 25 -136 c 6
 25 536 l 6
 25 567.936523438 56.87109375 599.875 88.8076171875 599.875 c 0
 89 599.875 l 6
 233 600 l 6xf4
EndSplineSet
Validated: 1
EndChar

StartChar: h
Encoding: 104 104 72
Width: 322
VWidth: -200
Flags: W
HStem: -200 21G<25 89 233 297> -200 21G<25 89 233 297> 168 64<89 233> 580 20G<25 89 233 297> 580 20G<25 89 233 297>
VStem: 25 64<-200 168 232 600> 233 64<-200 168 232 600>
LayerCount: 2
Fore
SplineSet
25 600 m 5xb6
 89 600 l 5
 89 232 l 5
 233 232 l 5
 233 600 l 5
 297 600 l 5
 297 -200 l 5
 233 -200 l 5
 233 168 l 5
 89 168 l 5
 89 -200 l 5
 25 -200 l 5
 25 600 l 5xb6
EndSplineSet
Validated: 1
EndChar

StartChar: i
Encoding: 105 105 73
Width: 114
VWidth: -200
Flags: W
HStem: -200 21G<25 89> -200 21G<25 89> 580 20G<25 89> 580 20G<25 89>
VStem: 25 64<-200 600>
LayerCount: 2
Fore
SplineSet
25 600 m 5xa8
 89 600 l 5
 89 -200 l 5
 25 -200 l 5
 25 600 l 5xa8
EndSplineSet
Validated: 1
EndChar

StartChar: j
Encoding: 106 106 74
Width: 290
VWidth: -200
Flags: W
HStem: -200 64<89.071 200.957> 580 20G<201 265> 580 20G<201 265>
VStem: 25 64<-135.937 24> 201 64<-135.974 600>
LayerCount: 2
Fore
SplineSet
201 600 m 5xd8
 265 600 l 5
 265 -136 l 6
 265 -168 249 -200 217 -200 c 6
 89 -200 l 6
 56.974609375 -200 25 -168 25 -136 c 6
 25 24 l 5
 89 24 l 5
 89 -104 l 6
 89 -135.998046875 89.2080078125 -136 120.98828125 -136 c 0
 121 -136 l 6
 171.5 -136 l 6
 171.505859375 -136 l 0
 200.850585938 -136 201 -135.999023438 201 -104.966796875 c 0
 201 -104 l 5
 201 600 l 5xd8
EndSplineSet
Validated: 1
EndChar

StartChar: k
Encoding: 107 107 75
Width: 330
VWidth: -800
Flags: W
HStem: -200 21G<25 88.5292 240.504 304.53> -200 21G<25 88.5292 240.504 304.53> 168 64<89.001 225.253> 580 20G<25 89 240.088 304.997> 580 20G<25 89 240.088 304.997>
VStem: 25 63.501<-200 168 232 600> 225.003 63.9971<248 402.028> 240.504 64<-200 168 452.336 600>
LayerCount: 2
Fore
SplineSet
25 600 m 5xb5
 89 600 l 5
 89 248 l 6
 89 232 89 232 105 232 c 6
 209 232 l 6
 225 232 225.002929688 232 225.002929688 248 c 6
 240.997070312 600 l 5
 304.997070312 600 l 5
 289 248 l 5xb6
 257 216 l 5
 305 184 l 5
 304.50390625 -200 l 5
 240.50390625 -200 l 5
 241 152 l 6
 241 168 241 168 225 168 c 6
 104.997070312 168 l 6
 88.9970703125 168 88.9970703125 168 88.9970703125 152 c 6
 88.5009765625 -200 l 5
 25 -200 l 5
 25 600 l 5xb5
EndSplineSet
Validated: 1
EndChar

StartChar: l
Encoding: 108 108 76
Width: 259
VWidth: -200
Flags: W
HStem: -200 64<89 249> 580 20G<25 89> 580 20G<25 89>
VStem: 25 64<-136 600>
LayerCount: 2
Fore
SplineSet
25 600 m 5xd0
 89 600 l 5
 89 -136 l 5
 249 -136 l 5
 249 -200 l 5
 25 -200 l 5
 25 600 l 5xd0
EndSplineSet
Validated: 1
EndChar

StartChar: m
Encoding: 109 109 77
Width: 402
VWidth: -200
Flags: W
HStem: -200 21G<25 89.0001 313 376.999> -200 21G<25 89.0001 313 376.999> 580 20G<25 78.9299 323.079 376.999> 580 20G<25 78.9299 323.079 376.999>
VStem: 25 64<-200 312> 25 48<576.391 600> 313 63.999<-200 312> 329.001 47.998<576.359 600>
LayerCount: 2
Fore
SplineSet
25 -200 m 5xaa
 25 600 l 5
 73 600 l 5
 201.084960938 168 l 5
 329.000976562 600 l 5
 376.999023438 600 l 5xa5
 376.999023438 -200 l 5
 313 -200 l 5
 313.002929688 312 l 5
 201.001953125 -24 l 5
 89.001953125 312 l 5
 89 -200 l 5
 25 -200 l 5xaa
EndSplineSet
Validated: 524289
EndChar

StartChar: n
Encoding: 110 110 78
Width: 370
VWidth: -200
Flags: W
HStem: -200 21G<25 89.0312 274.806 345> -200 21G<25 89.0312 274.806 345> 580 20G<25 95.2436 280.969 345> 580 20G<25 95.2436 280.969 345>
VStem: 25 64.0312<-200 424 578.36 600> 280.969 64.0312<-200 -177.283 -24 600>
LayerCount: 2
Fore
SplineSet
25 600 m 5xac
 89.09375 600 l 5
 280.96875 -24 l 5
 280.96875 600 l 5
 345 600 l 5
 345 -200 l 5
 280.96875 -200 l 5
 88.6875 424 l 5
 89.03125 -200 l 5
 25 -200 l 5
 25 600 l 5xac
EndSplineSet
Validated: 1
EndChar

StartChar: o
Encoding: 111 111 79
Width: 322
VWidth: -200
Flags: W
HStem: -200 64<89.0711 232.929> 536.004 63.9961<89.0476 232.963>
VStem: 25 64<-135.937 535.954> 233 64<-135.937 535.934>
LayerCount: 2
Fore
SplineSet
89 600 m 6
 201 600 l 5
 233 600 l 6
 265.025390625 600 297 568 297 536 c 6
 297 -136 l 6
 297 -168 265.025390625 -200 233 -200 c 6
 201 -200 l 5
 89 -200 l 6
 56.974609375 -200 25 -168 25 -136 c 6
 25 536 l 6
 25 568 56.974609375 600 89 600 c 6
115.28125 536 m 4
 89.4423828125 535.887695312 88.9990234375 534.125 88.9990234375 506.985351562 c 0
 88.9990234375 506.022460938 89 505.02734375 89 504 c 6
 89 -104 l 6
 89 -135.998046875 89.2099609375 -136 120.98828125 -136 c 0
 121 -136 l 6
 201 -136 l 6
 201.01171875 -136 l 0
 232.791992188 -136 233 -135.998046875 233 -104 c 6
 233 504 l 6
 233 505.03125 233.000976562 506.029296875 233.000976562 506.99609375 c 0
 233.000976562 535.76953125 232.500976562 536 201.739257812 536 c 0
 201 536 l 6
 121 536 l 6
 119.643554688 536 118.34765625 536.00390625 117.104492188 536.00390625 c 0
 116.483398438 536.00390625 115.875976562 536.002929688 115.28125 536 c 4
EndSplineSet
Validated: 1
EndChar

StartChar: p
Encoding: 112 112 80
Width: 338
VWidth: -200
Flags: W
HStem: -200 21G<25 88.734> -200 21G<25 88.734> 168 64<89.0273 248.792> 536.229 63.7705<89.0466 248.812>
VStem: 25 63.9375<-200 168 232.08 536.229> 248.875 64.125<232 535.938>
LayerCount: 2
Fore
SplineSet
25 600 m 5xbc
 249.03125 600 l 6
 281.015625 600 313 568 313 536 c 6
 313 232 l 6
 313 200 281 168 249 168 c 6
 89 168 l 5
 88.71875 -200 l 5
 25 -200 l 5
 25 600 l 5xbc
106.53125 536.21875 m 4
 105.258789062 536.1953125 104.061523438 536.125 102.9375 536 c 4
 89.4560546875 534.5 88.9375 528 88.9375 504 c 6
 88.9375 265 l 6
 88.9375 232.37109375 88.953125 232 120.9375 232 c 6
 234.90625 232 l 5
 248.387695312 233.4296875 248.875 240.119140625 248.875 263 c 6
 248.875 504 l 6
 248.875 504.09375 l 0
 248.875 536 248.859375 536 216.90625 536 c 6
 120.9375 536 l 6
 115.592773438 536 111.362304688 536.229492188 107.801757812 536.229492188 c 0
 107.368164062 536.229492188 106.9453125 536.2265625 106.53125 536.21875 c 4
EndSplineSet
Validated: 1
EndChar

StartChar: q
Encoding: 113 113 81
Width: 322
VWidth: -400
Flags: W
HStem: -200 64<89.0711 232.929> 104 64<185 233> 536.004 63.9961<89.0476 232.963>
VStem: 25 64<-135.937 535.954> 185 112<104 168> 233 64<-135.937 104 168 535.934>
LayerCount: 2
Fore
SplineSet
89 600 m 6xf4
 201 600 l 5
 233 600 l 6
 265.025390625 600 297 568 297 536 c 6
 297 -136 l 6
 297 -168 265.025390625 -200 233 -200 c 6
 201 -200 l 5
 89 -200 l 6
 56.974609375 -200 25 -168 25 -136 c 6
 25 536 l 6
 25 568 56.974609375 600 89 600 c 6xf4
115.28125 536 m 4
 89.4423828125 535.887695312 88.9990234375 534.125 88.9990234375 506.985351562 c 0
 88.9990234375 506.022460938 89 505.02734375 89 504 c 6
 89 -104 l 6
 89 -135.998046875 89.2099609375 -136 120.98828125 -136 c 0
 121 -136 l 6
 201 -136 l 6
 201.01171875 -136 l 0
 232.791992188 -136 233 -135.998046875 233 -104 c 6
 233 104 l 5xf4
 185 104 l 5
 185 168 l 5xf8
 233 168 l 5
 233 504 l 6
 233 505.03125 233.000976562 506.029296875 233.000976562 506.99609375 c 0
 233.000976562 535.76953125 232.500976562 536 201.739257812 536 c 0
 201 536 l 6
 121 536 l 6
 119.643554688 536 118.34765625 536.00390625 117.104492188 536.00390625 c 0
 116.483398438 536.00390625 115.875976562 536.002929688 115.28125 536 c 4
EndSplineSet
Validated: 1
EndChar

StartChar: r
Encoding: 114 114 82
Width: 306
VWidth: -200
Flags: W
HStem: -200 21G<25 88.7374 216.656 280.616> -200 21G<25 88.7374 216.656 280.616> 168 64<89.0584 216.788> 536.229 63.7705<89.0754 216.812>
VStem: 25 63.9766<-200 167.931 232.079 536.229> 216.656 63.9375<-200 167.943 232 535.938>
LayerCount: 2
Fore
SplineSet
25 600 m 5xbc
 217.03125 600 l 6
 249.015625 600 281 568 281 536 c 6
 280.6875 232 l 5
 233 200 l 5
 281 168 l 5
 280.59375 -200 l 5
 216.65625 -200 l 5
 216.96875 137 l 6
 216.969726562 137.686523438 216.969726562 138.358398438 216.969726562 139.014648438 c 0
 216.969726562 168 216.025390625 168 184.75 168 c 6
 121.03125 168 l 6
 91.6396484375 168 88.9765625 168 88.9765625 143.143554688 c 0
 88.9765625 140.680664062 89.001953125 137.974609375 89.03125 135 c 6
 88.71875 -200 l 5
 25 -200 l 5
 25 600 l 5xbc
106.53125 536.21875 m 4
 105.258789062 536.1953125 104.061523438 536.125 102.9375 536 c 4
 89.4560546875 534.5 88.96875 528 88.96875 504 c 6
 88.96875 265 l 6
 88.96875 264.904296875 l 0
 88.96875 232.370117188 88.984375 232 120.9375 232 c 6
 202.90625 232 l 5
 216.387695312 233.4296875 216.875 240.119140625 216.875 263 c 6
 216.875 504 l 6
 216.875 504.09375 l 0
 216.875 536 216.859375 536 184.90625 536 c 6
 120.9375 536 l 6
 115.592773438 536 111.362304688 536.229492188 107.801757812 536.229492188 c 0
 107.368164062 536.229492188 106.9453125 536.2265625 106.53125 536.21875 c 4
EndSplineSet
Validated: 1
EndChar

StartChar: s
Encoding: 115 115 83
Width: 306
VWidth: -200
Flags: W
HStem: -200 64<89.0653 217.062> 168 64<89.2815 217.062> 536 64<89.2815 216.997>
VStem: 25 64.2188<-135.937 -40 232.062 535.938> 217.125 63.5625<-135.938 167.937 440 535.937>
CounterMasks: 1 e0
LayerCount: 2
Fore
SplineSet
88.9375 600 m 6
 216.75 600 l 6
 248.71484375 600 280.6875 568 280.6875 536 c 6
 281 440 l 5
 217.09375 440 l 5
 217.09375 503.875 l 6
 216.98828125 535.999023438 217 536 185.005859375 536 c 0
 185 536 l 6
 121.1875 536 l 6
 89.2255859375 536 89.21875 536 89.21875 504 c 6
 89.21875 312 l 5
 89.21875 264 l 6
 89.21875 232 89.2255859375 232 121.1875 232 c 6
 216.75 232 l 6
 248.71484375 232 280.6875 200 280.6875 168 c 6
 280.6875 -136 l 6
 280.6875 -168 248.71484375 -200 216.75 -200 c 6
 88.9375 -200 l 6
 56.97265625 -200 25 -168 25 -136 c 6
 25.3125 -40 l 5
 89.21875 -40 l 5
 89 -104 l 6
 89 -136 89.0166015625 -135.999023438 122.09375 -136 c 6
 185.15625 -136 l 6
 217.12109375 -136 217.125 -136 217.125 -104 c 6
 217.125 -72 l 5
 217.125 -24 l 5
 217.125 136 l 6
 217.125 167.999023438 217.12109375 168 185.162109375 168 c 0
 185.15625 168 l 6
 88.9375 168 l 6
 56.97265625 168 25 200 25 232 c 6
 25 536 l 6
 25 568 56.97265625 600 88.9375 600 c 6
EndSplineSet
Validated: 1
EndChar

StartChar: t
Encoding: 116 116 84
Width: 308
VWidth: -200
Flags: W
HStem: -200 21G<122 186> -200 21G<122 186> 536 64<10 122 186 298>
VStem: 122 64<-200 536>
LayerCount: 2
Fore
SplineSet
10 600 m 5xb0
 298 600 l 5
 298 536 l 5
 186 536 l 5
 186 -200 l 5
 122 -200 l 5
 122 536 l 5
 10 536 l 5
 10 600 l 5xb0
EndSplineSet
Validated: 1
EndChar

StartChar: u
Encoding: 117 117 85
Width: 306
VWidth: -200
Flags: W
HStem: -200 64<89.0711 216.929> 580 20G<25 89 217 281> 580 20G<25 89 217 281>
VStem: 25 64<-135.937 600> 217 64<-135.937 600>
LayerCount: 2
Fore
SplineSet
25 600 m 5xd8
 89 600 l 5
 89 -104 l 6
 89 -135.998046875 89.2099609375 -136 120.98828125 -136 c 0
 121 -136 l 6
 185 -136 l 6
 185.01171875 -136 l 0
 216.791992188 -136 217 -135.998046875 217 -104 c 6
 217 600 l 5
 281 600 l 5
 281 -136 l 6
 280.65234375 -167.998046875 249.025390625 -200 217 -200 c 6
 169 -200 l 5
 89 -200 l 6
 56.974609375 -200 25 -168 25 -136 c 6
 25 600 l 5xd8
EndSplineSet
Validated: 1
EndChar

StartChar: v
Encoding: 118 118 86
Width: 372
VWidth: -200
Flags: W
HStem: -200 21G<150.4 221.6> -200 21G<150.4 221.6> 580 20G<10 77.5443 294.456 362> 580 20G<10 77.5443 294.456 362>
LayerCount: 2
Fore
SplineSet
10 600 m 5xa0
 74 600 l 5
 186 -32 l 5
 298 600 l 5
 362 600 l 5
 218 -200 l 5
 154 -200 l 5
 10 600 l 5xa0
EndSplineSet
Validated: 1
EndChar

StartChar: x
Encoding: 120 120 87
Width: 370
VWidth: -200
Flags: W
HStem: -200 21G<25 94.7143 275.286 345> -200 21G<25 94.7143 275.286 345> 580 20G<25 94.2174 275.783 345> 580 20G<25 94.2174 275.783 345>
VStem: 25 64<-200 -175.5>
LayerCount: 2
Fore
SplineSet
25 600 m 5xa8
 89 600 l 5
 185 232 l 5
 281 600 l 5
 345 600 l 5
 249 184 l 5
 345 -200 l 5
 281 -200 l 5
 185 136 l 5
 89 -200 l 5
 25 -200 l 5
 121 184 l 5
 25 600 l 5xa8
EndSplineSet
Validated: 1
EndChar

StartChar: y
Encoding: 121 121 88
Width: 352
VWidth: -200
Flags: W
HStem: -200 21G<144 208> -200 21G<144 208> 580 20G<0 70.087 281.913 352> 580 20G<0 70.087 281.913 352>
VStem: 0 64<577 600> 144 64<-200 143.333> 288 64<577 600>
CounterMasks: 1 0e
LayerCount: 2
Fore
SplineSet
0 600 m 5xae
 64 600 l 5
 176 232 l 5
 288 600 l 5
 352 600 l 5
 208 120 l 5
 208 56 l 5
 208 -200 l 5
 144 -200 l 5
 144 56 l 5
 144 120 l 5
 0 600 l 5xae
EndSplineSet
Validated: 1
EndChar

StartChar: z
Encoding: 122 122 89
Width: 306
VWidth: -200
Flags: W
HStem: -200 64<112 281> 536 64<25 194>
VStem: 25 256<-200 -169.515 569.515 600>
LayerCount: 2
Fore
SplineSet
25 600 m 5
 185 600 l 5
 281 600 l 5
 112 -136 l 5
 281 -136 l 5
 281 -200 l 5
 89 -200 l 5
 25 -200 l 5
 194 536 l 5
 25 536 l 5
 25 600 l 5
EndSplineSet
Validated: 1
EndChar

StartChar: braceleft
Encoding: 123 123 90
Width: 242
VWidth: -200
Flags: W
HStem: -200 64<89 217> 536 64<89 217>
VStem: 25 64<-136 152 216 536>
LayerCount: 2
Fore
SplineSet
89 600 m 6
 217 600 l 5
 217 536 l 5
 89 536 l 5
 89 189 l 5
 89 174 l 5
 89 -136 l 5
 217 -136 l 5
 217 -200 l 5
 89 -200 l 6
 88.9697265625 -200 l 0
 56.9794921875 -200 25 -167.990234375 25 -136 c 6
 25 152 l 5
 88 177 l 5
 25 216 l 5
 25 539 l 6
 25 539.002929688 l 0
 25 568.001953125 57.0009765625 600 89 600 c 6
EndSplineSet
Validated: 1
EndChar

StartChar: bar
Encoding: 124 124 91
Width: 114
VWidth: -400
Flags: W
HStem: -200 21G<25 89> -200 21G<25 89> 580 20G<25 89> 580 20G<25 89>
VStem: 25 64<-200 600>
LayerCount: 2
Fore
SplineSet
25 600 m 5xa8
 89 600 l 5
 89 -200 l 5
 25 -200 l 5
 25 600 l 5xa8
EndSplineSet
Validated: 1
EndChar

StartChar: braceright
Encoding: 125 125 92
Width: 242
VWidth: -200
Flags: W
HStem: -200 64<25 153> 536 64<25 153>
VStem: 153 64<-136 152 216 536>
LayerCount: 2
Fore
SplineSet
153 600 m 6
 184.999023438 600 217 568.001953125 217 539.002929688 c 0
 217 539 l 6
 217 216 l 5
 154 177 l 5
 217 152 l 5
 217 -136 l 6
 217 -167.990234375 185.020507812 -200 153.030273438 -200 c 0
 153 -200 l 6
 25 -200 l 5
 25 -136 l 5
 153 -136 l 5
 153 174 l 5
 153 189 l 5
 153 536 l 5
 25 536 l 5
 25 600 l 5
 153 600 l 6
EndSplineSet
Validated: 1
EndChar

StartChar: asciitilde
Encoding: 126 126 93
Width: 402
VWidth: -200
Flags: W
HStem: 165 105
LayerCount: 2
Fore
SplineSet
147 270 m 5
 256 229 l 5
 377 256 l 5
 377 192 l 5
 256 165 l 5
 147 206 l 5
 25 165 l 5
 25 229 l 5
 147 270 l 5
EndSplineSet
Validated: 1
EndChar

